<?xml version="1.0" encoding="utf-8"?>
<!-- Generator: Adobe Illustrator 21.0.0, SVG Export Plug-In . SVG Version: 6.00 Build 0)  -->
<svg version="1.1" id="Layer_1" xmlns="http://www.w3.org/2000/svg" xmlns:xlink="http://www.w3.org/1999/xlink" x="0px" y="0px"
	 viewBox="0 0 388 150" style="enable-background:new 0 0 388 150;" xml:space="preserve">
<style type="text/css">
	.st0{fill:#999999;}
	.st1{fill:#999999;enable-background:new    ;}
</style>
<g>
	<path class="st0" d="M44.3,54.4c-2.9,2.9-5.9,4.7-9.1,5.5c-1.3,0.3-2.6,0.5-3.9,0.5c-0.7,0-1.5,0-2.2-0.1c-3.7-0.5-6.9-2.1-9.7-4.9
		c-3.3-3.3-5-7.3-5-11.9s1.7-8.6,5-11.9c3.2-3.3,7.2-5,11.9-5c4.6,0,8.9,2,13,5.9l6.5-6.3c-5.9-5.8-12.4-8.7-19.5-8.7
		S18,20.1,12.9,25.2c-5,5-7.5,11.1-7.5,18.2c0,7.2,2.5,13.3,7.5,18.3c5.1,5.1,11.2,7.6,18.4,7.6c6.9,0,12.9-2.4,17.8-7.1
		c0.6-0.5,1.2-1,1.7-1.6L44.3,54.4z"/>
	<polygon class="st0" points="164.9,68.3 155.9,68.3 155.9,36.9 144.5,68.3 136.1,68.3 124.7,36.8 124.7,68.3 115.7,68.3 
		115.7,18.7 127.6,18.7 140.3,53.4 153,18.7 164.9,18.7 	"/>
	<path class="st0" d="M210.9,33.3c0,4.2-1.7,7.8-5,10.6c-3.1,2.7-6.8,4-11.1,4h-12.3v20.3h-9V18.7h21.3c4.2,0,7.9,1.3,11,4
		C209.2,25.6,210.9,29.2,210.9,33.3z M201.9,33.3c0-1.7-0.7-3-2.1-4c-1.4-1.1-3-1.6-4.9-1.6h-12.3V39h12.3c1.9,0,3.5-0.5,4.9-1.6
		C201.2,36.4,201.9,35,201.9,33.3z"/>
	<polygon class="st0" points="253.1,68.3 217.4,68.3 217.4,18.7 253.1,18.7 253.1,27.7 226.4,27.7 226.4,39 247.2,39 247.2,48 
		226.4,48 226.4,59.3 253.1,59.3 	"/>
	<polygon class="st0" points="298.3,27.7 283.3,27.7 283.3,68.3 274.3,68.3 274.3,27.7 259.3,27.7 259.3,18.7 298.3,18.7 	"/>
	<polygon class="st0" points="340.3,68.3 304.6,68.3 304.6,18.7 340.3,18.7 340.3,27.7 313.6,27.7 313.6,39 334.4,39 334.4,48 
		313.6,48 313.6,59.3 340.3,59.3 	"/>
	<g>
		<path class="st0" d="M72.6,67.3c-3.4-1.3-5.8-3.3-6.7-4c0.6,0.5,1.3,1,1.9,1.5l0.7,0.5C70.6,66.6,72.7,67.3,72.6,67.3L72.6,67.3z
			 M59.1,54.3c0-0.1-0.1-0.2-0.1-0.3c-1.6-3.6-2.2-6.8-2-10.5c-0.1,0.7-0.2,2,0.1,3.9l0.2,1.2c0.5,2.2,0.6,2.3,1.1,3.7
			C58.5,53,58.9,53.8,59.1,54.3C59.1,54.4,59.1,54.3,59.1,54.3L59.1,54.3z M57.7,49.1c-0.3-5.9,3.9-8.6,5.2-9.5
			c4-2.5,9.2-4.9,17-3.5c-8.2-5.7-13.8-4.9-13.8-4.9c-9.4,5.3-9.7,11.5-8.7,17.5c0.1,0.3,0.2,0.8,0.2,1.2
			C57.8,49.7,57.7,49.3,57.7,49.1L57.7,49.1z M59.2,36.1c1.7-2.6,3.9-4.1,4.6-4.6c-1.4,0.3-2.3,0.7-2.3,0.7s-1.3,1.5-2.4,4.1
			C59.1,36.3,59.1,36.2,59.2,36.1L59.2,36.1z M56.7,44.3c0-2.2,0.4-3.6,0.7-4.6c1.1-3.3,1.5-4.4,3.2-7c-0.7,0.5-2.5,1.7-3.3,4.8
			c-0.1,0.6-0.3,1.5-0.4,2.1C56.6,42.1,56.6,42.4,56.7,44.3L56.6,45C56.7,44.8,56.7,44.5,56.7,44.3L56.7,44.3z M64,29.4
			c1.3-0.3,2.4-0.4,4.3-0.3c1.8-0.7,3-1.1,4.9-1.5c-2.8-1.3-4.4-1.6-4.4-1.6C68.8,25.9,66.6,27,64,29.4L64,29.4L64,29.4z M58.9,33.1
			c1-1.7,2.4-2.9,4.3-3.5c1.7-1.6,2.9-2.6,5.1-3.9c-2.9-0.6-4-0.1-4-0.1s-3.4,2.8-5.5,7.8C58.8,33.4,58.9,33.2,58.9,33.1L58.9,33.1z
			 M70.3,25.3c1.9,0.8,3.5,1.7,4.1,2c6.4-1,12-0.5,18.8,1.7c-10.1-10-19.9-5.3-23.1-3.8C70.2,25.3,70.3,25.3,70.3,25.3L70.3,25.3z
			 M60.2,30.4c1.3-2.2,2.4-3.4,3.2-4.4c-0.2,0.2-0.2,0.2-0.3,0.3c-0.4,0.5-1,1.2-1.4,1.7c-0.6,0.9-1.4,2.1-2,3.1
			C60,30.9,60.1,30.6,60.2,30.4L60.2,30.4z M64.8,24.7c0.1-0.1,0.3-0.2,0.4-0.2c4-3.6,8-4.9,9.5-5.4c-1.8,0.4-3.3,1-5.4,2.2
			l-0.6,0.4C66.5,23.1,66.4,23.2,64.8,24.7L64.8,24.7L64.8,24.7z M66.2,24.2c1.1,0,3.3,0.8,3.3,0.8s2.6-1.1,3.9-1.5
			c3.2-1.1,6.3-1.3,9.4-0.7c2.8,0.5,7.1,2.1,11.3,6.6c2.8,1.1,4.4,1.8,6.6,3.2c-12.1-21.9-28.4-13.1-34.8-8.3
			C66,24.2,66.1,24.2,66.2,24.2L66.2,24.2z M100.3,27.3c2.4,3.5,3.7,6.9,4.1,8c1.5,1.5,2.2,2.5,3.1,4c-1.3-4.6-3.6-8.5-7.3-12.1
			C100.2,27.2,100.3,27.3,100.3,27.3L100.3,27.3z M82.3,18.4c4.4,0.4,6.9,1.5,7.9,1.9c-2.7-1.8-4.7-2-8.1-1.9
			C82.2,18.4,82.3,18.4,82.3,18.4L82.3,18.4z M70.4,20.6c1-0.5,6.5-3.1,14.3-2.8c-0.8-0.2-1.7-0.3-2.9-0.3h-0.2
			c-2.2,0.2-2.5,0.2-4.1,0.5c-2.2,0.5-2.6,0.6-4.3,1.3c-0.9,0.4-2.1,1-3,1.4C70.2,20.7,70.3,20.7,70.4,20.6L70.4,20.6z M92.4,61.9
			c0.2,0,0.4,0,0.6,0s0.4,0.1,0.7,0L93.6,62c-4.6,5.3-13.4,9.3-23.1,4.2c-1.8-1-1.8-1-2.6-1.6c-1.4-1-1.4-1-2.4-1.8
			c-1.4-1.3-1.5-1.4-2.1-2.1c-1.3-1.5-1.3-1.5-1.9-2.4c-1.1-1.7-1.2-1.8-1.7-2.8c-0.9-1.9-1-2-1.4-3.2c-0.7-2.1-0.8-2.3-1.1-3.7
			c-0.4-2.3-0.4-2.5-0.5-4.3c0-2.3,0-2.8,0.3-4.8c0.5-2.4,0.6-2.9,1.4-5.2c1-2.4,1.6-3.7,3.5-6.4c0.8-1,1.9-2.2,2.7-3.1
			c1.9-1.7,2.2-2,4.2-3.3c2.1-1.2,2.4-1.4,4.4-2.2c2.3-0.8,2.5-0.9,4.3-1.3c2.3-0.4,2.5-0.4,4.1-0.5c2.2,0,2.4,0,3.7,0.1
			c2.1,0.3,2.2,0.3,3.4,0.6h0.1l0.3,0.1c4.6,1.4,6.7,2.7,8.3,3.8c0.6,0.4,1.2,0.9,1.7,1.3c0,0-3.8-2.6-6.3-3.5
			c2.6,1.6,4.2,3.3,5.5,4.7c0.4,0.5,0.5,0.6,0.9,1.1c0.1,0.1,0.2,0.1,0.2,0.1l0,0c9,8.6,9.3,16.7,9,19.7v-0.6c0-0.4,0-0.9-0.1-1.3
			c0,2.4-0.1,4-1,7.1l0.1-0.2c2.3-8.3-0.2-11-2.4-13.5c2,7.1,2,13.2,0,18.4c-0.2,0.3-0.5,0.6-0.8,0.9l0,0c1.7-5,1.2-11.2-1.1-18.6
			c-0.6-2-1.4-4.2-7.3-6.7c1.7,2.3,2.7,4.1,3.3,5.4c4.3,8.7,4.8,17.1,3.4,21.3l0,0c-0.3,0.2-0.6,0.5-1,0.7l0.1-0.4
			c1.7-6.1,0.6-16.4-5.6-25.8c-3.2-4.6-16.7-4.7-20.1-4.3c12.8,7.9,27.3,19.7,23.5,31.7c-0.4,0.2-0.8,0.3-1.1,0.5l0,0
			c3-7.3-1.5-13.6-5.1-17.6c-3.2-3.6-9.7-9.3-16.6-13.4c-2-1.2-2-1.2-5.9-0.1c3.8,0.9,9,2.6,14.6,8.5c15.7,7.1,11.7,21,8.3,24.1
			c-0.2,0.2-0.5,0.1-0.8,0C92.8,62,92.6,61.9,92.4,61.9l0.4-0.5c3.4-5.1,2.4-11.3-2.7-16.5c0.7,1.6,1.1,2.7,1.6,4.8
			c1.2,7-1.3,10.4-2.5,12.5c-0.4,0.7-1.1-0.1-1.6-0.2c0.3-0.3,0.8-0.5,1-0.8c3.8-4.6,1.2-13.9-3.2-19.8C73.6,34.8,56,39.9,58.3,52.1
			c1.9,5.3,12.4,22.6,29.2,9.9c0.5,0,1.3,0.8,1.3,0.8c-1.5,2.4-5,5.5-2.6,3.2c0.6-0.6-1,1-2.2,1.5C85.4,67,89.3,65.6,92.4,61.9
			L92.4,61.9z M98.4,60.5c0.4-0.2,0.8-0.3,1.1-0.5l0,0l0,0c-2.4,4.9-5.7,7.4-11.8,8.8l0,0c0.5-0.1,1.2-0.3,1.8-0.4
			C92.9,67.2,96.3,65.4,98.4,60.5L98.4,60.5z M101.7,58.8c0.3-0.2,0.7-0.4,1-0.7l-0.1,0.4c-0.4,1-1,2.8-3.1,4.7
			c-0.6,0.5-1.4,1.1-2,1.5l0.5-0.4c1.3-1.2,1.4-1.2,2.2-2.4C100.9,60.9,101.3,60.2,101.7,58.8L101.7,58.8L101.7,58.8z M104.3,56.7
			c0.3-0.3,0.5-0.6,0.8-0.9l0,0c-0.8,2-1.6,3.4-3.6,5.5l0.2-0.2c0.5-0.5,1.7-2,2.6-4.2C104.2,56.8,104.2,56.7,104.3,56.7L104.3,56.7
			z"/>
		<path class="st0" d="M77.9,68.6c2,0.4,3.9,0.6,5.7,0.6c1.5,0,2.9-0.1,4.2-0.4c0.1,0,0.3-0.1,0.4-0.1h-0.1c-1.5,0.3-3,0.4-4.4,0.4
			c-1.7,0-3.4-0.2-5-0.5C78.4,68.7,78.1,68.6,77.9,68.6L77.9,68.6z M89.3,68.5l-1,0.2c-0.2,0-0.3,0.1-0.5,0.1L89.3,68.5L89.3,68.5z
			 M70.5,66.4l0.2,0.1l0,0C70.6,66.4,70.5,66.4,70.5,66.4L70.5,66.4z M86.5,65.8c-0.1,0.1-0.2,0.2-0.4,0.3c-0.3,0.3-0.6,0.5-0.9,0.7
			c0.1,0,0.3,0,0.4,0.1c0.5-0.2,1.1-0.5,1.8-0.9C87.1,66,86.8,65.9,86.5,65.8L86.5,65.8z M69.1,65.6c0.5,0.3,0.8,0.5,1.4,0.8
			c-0.2-0.1-0.3-0.2-0.5-0.3C69.7,65.9,69.4,65.8,69.1,65.6L69.1,65.6z M94.9,65.5c-1.5,0.4-3.1,0.6-4.6,0.6c-0.5,0-0.9,0-1.4,0
			c-0.6,0.3-1.2,0.7-1.8,0.9c0.7,0.1,1.3,0.1,1.9,0.1c1.7,0,3.2-0.2,4.5-0.6C94,66.2,94.4,65.9,94.9,65.5L94.9,65.5z M68.7,65.3
			c0.1,0.1,0.3,0.2,0.4,0.2c0.2,0.1,0.5,0.3,0.9,0.5l0.1,0.1c-0.4-0.2-0.8-0.5-1.1-0.7l0,0C68.9,65.4,68.8,65.4,68.7,65.3L68.7,65.3
			z M87.3,64.9c-0.1,0.2-0.2,0.5-0.4,0.5c0.4,0.1,0.9,0.2,1.2,0.2c0.3-0.2,0.5-0.3,0.8-0.5c-0.5,0-0.9-0.1-1.4-0.2H87.3z M68,64.9
			C68.1,64.9,68.1,64.9,68,64.9C68.1,64.9,68.1,64.9,68,64.9C68.1,64.9,68.1,64.9,68,64.9L68,64.9z M67.8,64.7l0.6,0.4
			c-0.1-0.1-0.3-0.2-0.4-0.3C68,64.9,67.9,64.8,67.8,64.7L67.8,64.7z M67.6,64.6c0.1,0.1,0.1,0.1,0.2,0.1l0,0l0,0
			C67.8,64.7,67.7,64.7,67.6,64.6L67.6,64.6L67.6,64.6z M67.5,64.5c0.1,0.1,0.2,0.1,0.3,0.2c-0.1,0-0.1-0.1-0.2-0.1
			C67.5,64.5,67.5,64.5,67.5,64.5L67.5,64.5z M67.3,64.4c0.1,0.1,0.2,0.1,0.3,0.2c0,0,0,0,0.1,0C67.5,64.5,67.4,64.4,67.3,64.4
			L67.3,64.4z M96.1,64.3c-1.7,0.6-3.5,0.8-5.5,0.8c-0.1,0-0.2,0-0.3,0c-0.3,0.2-0.5,0.4-0.8,0.6c0.2,0,0.4,0,0.6,0c0.3,0,0.7,0,1,0
			c1.6-0.1,3.1-0.4,4.4-0.8C95.7,64.7,95.9,64.5,96.1,64.3L96.1,64.3z M98.5,63.9c-0.9,0.6-1.8,1-2.8,1.4c-0.4,0.4-0.9,0.7-1.4,1
			c1.3-0.5,2.3-1,3.2-1.6l0.4-0.3l0,0C98.2,64.2,98.3,64,98.5,63.9L98.5,63.9z M99.4,63.2L99.4,63.2l-0.3,0.3L99,63.6
			c-0.3,0.3-0.7,0.6-1,0.8l0,0l0,0c-0.1,0.1-0.2,0.2-0.3,0.2C98.3,64.1,98.9,63.6,99.4,63.2L99.4,63.2z M65.6,63
			c0.1,0.1,0.2,0.2,0.3,0.3l0,0l0.1,0.1C65.9,63.3,65.8,63.1,65.6,63L65.6,63z M99.8,62.5C98.9,63.1,98,63.6,97,64
			c-0.2,0.2-0.4,0.4-0.6,0.7c1.1-0.4,2-0.9,2.9-1.5C99.5,62.9,99.6,62.7,99.8,62.5L99.8,62.5z M64.5,62c0.4,0.4,0.6,0.5,1,0.9
			c0,0,0,0-0.1-0.1C65.1,62.5,64.8,62.2,64.5,62L64.5,62z M64.3,61.8c0.1,0.1,0.1,0.1,0.2,0.2C64.4,61.9,64.4,61.9,64.3,61.8
			C64.4,61.8,64.3,61.8,64.3,61.8L64.3,61.8z M64.8,61.7c1.2,1.2,2.6,2.2,4.1,3.1C67.4,63.9,66.1,62.8,64.8,61.7L64.8,61.7z
			 M63.2,60.7c0.1,0.1,0.1,0.2,0.2,0.2l-0.1-0.1l0,0C63.3,60.7,63.3,60.7,63.2,60.7L63.2,60.7z M102.1,60.6
			c-0.4,0.4-0.8,0.7-1.2,1.1c-0.2,0.2-0.3,0.4-0.5,0.6c0.4-0.4,0.9-0.8,1.3-1.3C101.8,60.9,101.9,60.7,102.1,60.6L102.1,60.6z
			 M62.5,59.7c0.3,0.4,0.5,0.6,0.8,0.9C63,60.3,62.7,60,62.5,59.7L62.5,59.7z M62.3,59.5c0.1,0.1,0.1,0.1,0.2,0.2
			C62.4,59.7,62.4,59.7,62.3,59.5C62.3,59.6,62.3,59.6,62.3,59.5L62.3,59.5z M93.9,59.4c-0.4,0.3-2.1,0.9-3.5,0.8
			c-0.4,0.8-0.9,1.4-1.2,1.9l0,0c-0.2,0.3-0.3,0.6-0.5,0.8c0.2,0,0.4,0,0.5,0c0.8,0,1.6,0,2.4-0.1c0.3-0.3,0.5-0.6,0.8-0.9l0,0
			l0.4-0.5C93.2,60.8,93.6,60.1,93.9,59.4L93.9,59.4z M102,58c-0.7,0.5-1.4,0.8-2.1,1.1c-0.1,0.3-0.2,0.6-0.3,0.9
			c-0.4,0.2-0.8,0.3-1.1,0.5l0,0c0.1-0.3,0.3-0.7,0.4-1c-1.3,0.4-2.6,0.7-3.7,0.8c-0.4,0.7-0.9,1.3-1.3,1.7l0,0l0,0l0,0l-0.1,0.1
			c-0.2,0.2-0.3,0.4-0.5,0.6c1.7-0.2,3.3-0.5,4.7-1c0.2-0.4,0.4-0.8,0.6-1.3c0.4-0.2,0.8-0.3,1.1-0.5l0,0l0,0
			c-0.2,0.5-0.5,0.9-0.7,1.3c0.8-0.4,1.6-0.8,2.4-1.3c0.1-0.3,0.3-0.7,0.4-1.1c0-0.1,0-0.1,0-0.1l0,0l0.1-0.4
			C101.9,58.3,101.9,58.1,102,58L102,58z M60.5,57c0.3,0.5,0.5,0.8,0.9,1.4c-0.1-0.1-0.2-0.3-0.2-0.4c-0.1-0.2-0.3-0.4-0.4-0.6
			C60.7,57.3,60.6,57.1,60.5,57L60.5,57z M99.4,56.9c-1.2,0.7-2.4,1.3-3.5,1.8c-0.2,0.5-0.4,1-0.6,1.4c1-0.4,2.4-1.1,4-2
			C99.3,57.7,99.3,57.3,99.4,56.9L99.4,56.9z M104.6,55.6c-0.5,0.6-1.1,1.1-1.7,1.6c-0.1,0.3-0.1,0.6-0.2,0.8l0,0l0,0l-0.1,0.4
			c-0.1,0.2-0.2,0.4-0.3,0.7c0.6-0.5,1.1-1,1.6-1.7c0.1-0.2,0.2-0.4,0.3-0.7c0-0.1,0.1-0.2,0.1-0.2l0,0l0,0
			C104.4,56.3,104.5,56,104.6,55.6L104.6,55.6z M102.5,54.7c-0.7,0.6-1.5,1.2-2.3,1.7c0,0.4,0,0.8-0.1,1.1c0.7-0.5,1.5-1,2.2-1.6
			C102.4,55.5,102.4,55.1,102.5,54.7L102.5,54.7z M59,54.1c0,0.1,0.1,0.2,0.1,0.3v-0.1v-0.1c0.2,0.5,0.4,0.8,0.7,1.4
			c-0.1-0.1-0.1-0.2-0.2-0.4c0,0,0-0.1-0.1-0.1c0-0.1-0.2-0.3-0.4-0.8C59.1,54.3,59.1,54.2,59,54.1L59,54.1L59,54.1z M58.3,52.5
			c0.1,0.2,0.2,0.4,0.2,0.6c0,0,0,0,0-0.1C58.5,52.8,58.4,52.6,58.3,52.5L58.3,52.5z M105.2,51.9c-0.6,0.7-1.2,1.4-1.9,2
			c0,0.4,0,0.8-0.1,1.2c0.6-0.6,1.3-1.2,1.9-1.9C105.2,52.7,105.2,52.3,105.2,51.9L105.2,51.9z M58.4,51.8c0,0.1,0,0.3,0.1,0.4
			c0.2,0.7,0.6,1.6,1.2,2.6C59.2,53.9,58.8,52.9,58.4,51.8L58.4,51.8z M107.8,49.6c-0.1,0.4-0.2,0.7-0.4,1.4l0,0l0,0
			c-0.5,1.3-1.2,2.5-1.9,3.5c-0.1,0.4-0.3,0.9-0.4,1.3l0,0l0,0c-0.1,0.2-0.2,0.4-0.3,0.6c0.8-1.2,1.6-2.7,2.3-4.4
			c0.1-0.3,0.2-0.6,0.2-0.8c-0.1,0.3-0.1,0.6-0.2,0.8l0,0c0.1-0.3,0.3-0.8,0.3-1l0,0c0-0.1,0-0.1,0.1-0.2
			C107.6,50.5,107.7,50.1,107.8,49.6C107.8,49.7,107.8,49.6,107.8,49.6L107.8,49.6z M57.6,49c0.1,0.3,0.1,0.6,0.2,0.9
			c0-0.2,0-0.4-0.1-0.6C57.7,49.2,57.6,49.1,57.6,49L57.6,49z M91.4,48.3c0.1,0.4,0.2,0.9,0.3,1.4c0.1,0.4,0.1,0.8,0.2,1.1H92
			c0.7,0,1.3,0,2-0.1c-0.3-0.8-0.6-1.5-1.1-2.3C92.4,48.5,91.9,48.4,91.4,48.3L91.4,48.3z M97.3,48.3c-0.4,0.1-0.8,0.1-1.2,0.2
			c0.2,0.6,0.4,1.2,0.5,1.8c0.5-0.2,1-0.3,1.5-0.5C97.8,49.2,97.6,48.7,97.3,48.3L97.3,48.3z M108.1,48.2L108.1,48.2
			c0,0.1,0,0.2,0,0.3c0,0,0,0,0-0.1V48.2L108.1,48.2z M56.9,46.6c0.1,0.7,0.2,1.2,0.3,2.1L57,47.4c0-0.2-0.1-0.5-0.1-0.7V46.6
			L56.9,46.6z M56.9,46.2c0,0.2,0,0.4,0.1,0.6c0.1,0.4,0.1,0.8,0.2,1.4c0.1,0.3,0.1,0.6,0.2,0.9c-0.1-0.6-0.2-1.2-0.3-1.8
			C57,46.9,56.9,46.5,56.9,46.2L56.9,46.2z M101.9,46c-1.1,1-2.4,1.7-3.9,2.2c0.2,0.4,0.5,0.9,0.7,1.3c1.3-0.7,2.5-1.5,3.4-2.4
			C102,46.6,101.9,46.3,101.9,46L101.9,46z M108.4,45.4c-0.1,0.8-0.3,1.2-0.7,2.5c0,0,0,0,0,0.1c0,0,0,0,0-0.1l-0.1,0.3
			c-0.3,0.7-0.7,1.4-1.1,2.1c-0.1,0.5-0.1,1-0.2,1.4c0.5-0.8,1-1.7,1.4-2.7l0,0l0.3-0.7c0.1-0.4,0.3-0.9,0.4-1.4
			C108.3,46.4,108.4,45.9,108.4,45.4L108.4,45.4z M56.7,44.8c0,0.1,0,0.1,0,0.2l0,0c0,0.1,0,0.2,0,0.3C56.8,45.2,56.7,45,56.7,44.8
			L56.7,44.8z M108.5,44.8c0,0.1,0,0.3,0,0.4c0,0.5,0,1-0.1,1.4c0-0.3,0.1-0.5,0.1-0.8l0,0v-0.6C108.5,45.1,108.5,44.9,108.5,44.8
			L108.5,44.8z M56.7,44.4L56.7,44.4c0,0.2,0,0.3,0,0.4c0-0.1,0-0.2,0-0.3C56.7,44.5,56.7,44.4,56.7,44.4L56.7,44.4z M56.9,44
			c0,0.3,0,0.6,0,1c0,0.6,0.1,1.1,0.2,1.6C57,46,57,45.3,57,44.7C56.9,44.4,56.9,44.2,56.9,44L56.9,44z M108.5,43.8v0.5
			c0,0.1,0,0.1,0,0.2c0,0.2,0,0.4,0,0.7C108.5,44.7,108.5,44.2,108.5,43.8L108.5,43.8z M104.2,41.7c-0.4,1.5-1,2.7-1.8,3.7
			c0.1,0.3,0.2,0.7,0.2,1c0.9-1,1.5-2.1,2-3.2C104.5,42.7,104.4,42.2,104.2,41.7L104.2,41.7z M57.9,40c-0.3,0.7-0.4,1.5-0.6,2.2
			c0.2,1.1,0.4,2.2,0.8,3.3c0.2-0.6,0.4-1.1,0.7-1.7C58.3,42.4,58,41.1,57.9,40L57.9,40z M72.1,38.6c-2,0.2-3.9,0.6-5.7,1.2
			c0.1,2.2,0.5,4.4,1.2,6.3c0.7,2.2,1.6,3.8,2.1,4.7c2.9,4.8,7.1,8.3,12.3,10.4c-0.2,0-0.5,0-0.7,0c-2.2-0.1-3.9-0.3-4.8-0.5
			C69.9,56.9,64.1,50,62,42.3c-0.1,0.1-0.2,0.2-0.3,0.3c0.1,0.3,0.2,0.6,0.3,0.9c0.9,2.6,3.7,10.7,13,17.1c-0.1,0-0.2,0-0.3-0.1
			c-1.7-0.4-3-0.6-7.9-5.2L66.4,55l-0.1-0.1l-0.4-0.4l-0.9-1c-2.7-3-4.5-5.8-5.6-8.2c-0.3,0.5-0.5,1.1-0.7,1.6
			c0.9,2.1,2.2,4.2,4,6.4c0.5,0.5,1.1,1.3,1.6,1.8l0.8,0.9l0.4,0.4l0.1,0.1l0.1,0.1c0.7,0.6,1.1,1.1,2,1.8c-0.3-0.2-0.7-0.3-1.1-0.5
			c-5.1-2.5-7.4-5.5-8.4-7.5c0,0.4,0,0.7,0.1,1.1c2.2,3.5,4,4.8,6.7,6.6c0.1,0.1,11.1,6.3,15.9,7.7c0.7-0.2,1.4-0.5,2.1-0.8
			c-3.2-1-5.8-2.3-7.2-3c2.8,0.5,5.4,1.6,8.1,2.6c0.2-0.1,0.3-0.2,0.5-0.2c-1.6-0.4-3.3-1.1-5-1.9c2.6,0.2,5.1,0.3,7.3,0.4
			c0.3-0.2,0.7-0.5,1-0.7l0,0l0,0c0.3-0.3,0.8-0.5,1-0.8c0.3-0.4,0.6-0.8,0.8-1.2c-5.5-1-13.8-5.1-17.1-13.9
			c-0.8-2.1-1.1-3.8-1.3-4.9c7.3,6.2,13.7,8.9,18.8,9.5c-0.2-1-0.6-1.9-0.9-2.9C83.3,46.4,77.1,43,72.1,38.6L72.1,38.6z M57.4,37.7
			c0,0.2-0.1,0.4-0.1,0.6c0-0.1,0-0.2,0.1-0.4c0,0.2-0.1,0.4-0.1,0.6v0.1C57.2,38.3,57.3,38,57.4,37.7L57.4,37.7z M57.4,37.5
			c0,0.2-0.1,0.3-0.1,0.5C57.3,37.8,57.4,37.6,57.4,37.5L57.4,37.5z M105.1,37.4c0.1,0.5,0.3,1,0.4,1.4c0-0.3,0-0.6,0-1
			C105.3,37.7,105.2,37.5,105.1,37.4L105.1,37.4z M57.6,36.9L57.6,36.9C57.5,37,57.5,37,57.6,36.9C57.5,37,57.5,36.9,57.6,36.9
			L57.6,36.9z M58,35.8c-0.2,0.3-0.3,0.7-0.4,1.1c-0.1,0.6-0.3,1.2-0.4,2.1c-0.2,1.4-0.3,2.8-0.3,4c0-0.4,0.1-0.7,0.1-1
			c0-0.9,0.1-1.9,0.3-2.9c0,0.5,0,1,0,1.6c0.1-0.4,0.2-0.7,0.3-1s0.2-0.6,0.3-0.9C57.7,37.6,57.8,36.6,58,35.8L58,35.8z M61.3,34.8
			c-0.1,0.1-0.2,0.2-0.3,0.3c-0.1,1.8-0.1,3.7,0.3,5.7c0.1-0.1,0.2-0.2,0.4-0.3C61.3,38.6,61.2,36.7,61.3,34.8L61.3,34.8z
			 M58.7,33.5c-0.1,0.3-0.2,0.5-0.3,0.8l0,0l0,0c0.1-0.1,0.1-0.3,0.2-0.4C58.6,33.8,58.6,33.7,58.7,33.5L58.7,33.5z M61.7,32.1
			c-0.1,0.1-0.2,0.1-0.2,0.1s-0.1,0.1-0.2,0.2c-0.1,0.4-0.1,0.9-0.2,1.3c0.1-0.1,0.2-0.2,0.3-0.3C61.5,33,61.6,32.5,61.7,32.1
			L61.7,32.1z M63.8,31.5c-0.2,0-0.4,0.1-0.6,0.1c0,0.1,0.1,0.1,0.1,0.2l0,0C63.5,31.7,63.7,31.6,63.8,31.5L63.8,31.5z M67.3,31.2
			c-0.2,0.6-0.3,1.1-0.4,1.7c-0.2-0.3-0.4-0.6-0.6-0.8s-0.3-0.5-0.4-0.7c-0.8,0.4-2.5,0.6-2.1,1.3c1.6,2.8,1.9,3.5,2.6,4.9
			c0,0,1.1-0.4,2-0.8c1-0.4,1.5-0.6,2.6-0.8c0.1-1.5,0.3-2.9,0.6-4.2C69.7,31.4,68.2,31.2,67.3,31.2L67.3,31.2z M59.9,31
			c0,0,0,0.1-0.1,0.1l0,0l0,0l0,0c-0.5,0.9-0.9,1.7-1.2,2.5c0.4-1,0.8-1.7,1.2-2.4C59.9,31.1,59.9,31,59.9,31L59.9,31z M103,30.4
			c0.1,0.5,0.3,0.9,0.4,1.4c0.3,1,0.5,1.9,0.6,2.7c0.1,0.3,0.2,0.6,0.3,0.8c0.4,0.4,0.7,0.7,1,1c-0.1-0.9-0.2-2-0.5-3.1
			C104.3,32.2,103.7,31.3,103,30.4L103,30.4z M72.5,28.9c-0.5,0.1-1,0.3-1.7,0.5c0.4,0.1,0.9,0.2,1.4,0.3
			C72.3,29.5,72.4,29.2,72.5,28.9L72.5,28.9z M64.7,28.8c-0.2,0.2-0.5,0.4-0.7,0.6l0,0c0.3-0.1,0.6-0.1,0.8-0.2
			C64.8,29.1,64.7,29,64.7,28.8L64.7,28.8z M61.8,28L61.8,28L61.8,28L61.8,28z M63.1,26.5c-0.3,0.3-0.6,0.7-0.9,1.1
			C62.5,27.2,62.8,26.9,63.1,26.5L63.1,26.5L63.1,26.5z M63.2,26.3c-0.2,0.2-0.5,0.5-0.7,0.8C62.7,26.9,63,26.6,63.2,26.3L63.2,26.3
			L63.2,26.3z M63.2,26.3c0,0.1-0.1,0.1-0.1,0.2l0,0C63.1,26.4,63.2,26.4,63.2,26.3L63.2,26.3z M69.3,26.1c-0.5,0.9-1,1.9-1.4,3
			c0.1,0,0.2,0,0.3,0c1.7-0.7,2.9-1.1,4.8-1.5c0,0,0,0,0-0.1C71.3,26.7,70,26.3,69.3,26.1L69.3,26.1z M64.6,25.6
			c-0.1,0-0.1,0-0.2,0.1s-0.1,0.1-0.2,0.2v-0.1c0,0,0,0,0-0.1l0,0c0,0-0.6,0.5-1.4,1.4c-0.3,0.7-0.7,1.7-1,3.1
			c0.2-0.1,0.3-0.2,0.5-0.2c0.1-0.2,0.2-0.5,0.3-0.7c0,0.2,0.1,0.4,0.1,0.6c0.2-0.1,0.3-0.1,0.5-0.2c0.5-0.5,0.9-0.9,1.3-1.2
			c-0.3-1-0.3-1.8-0.3-2.3C64.4,25.9,64.5,25.7,64.6,25.6L64.6,25.6z M64.7,24.7c-0.1,0.1-0.1,0.1-0.2,0.2l0,0l0,0
			C64.6,24.9,64.6,24.8,64.7,24.7C64.7,24.8,64.7,24.8,64.7,24.7L64.7,24.7z M64.9,24.6L64.9,24.6c-0.1,0.1-0.1,0.1-0.1,0.1l0,0l0,0
			c0,0-0.1,0-0.1,0.1C64.8,24.7,64.8,24.6,64.9,24.6L64.9,24.6z M66.4,23.2c-0.3,0.2-0.6,0.5-0.9,0.7C65.9,23.7,66.2,23.4,66.4,23.2
			L66.4,23.2z M76,23.1c-2.6,0.5-4.7,1.5-5.9,2.1c0.1,0,0.2,0.1,0.2,0.1c1.2,0.5,2.3,1.1,3.1,1.5C74.2,25.4,75,24.2,76,23.1L76,23.1
			z M97.4,22.3c3.1,2.3,4.5,4.8,5.4,7.5c0.7,0.9,1.3,1.7,1.9,2.6c-0.8-3-2.5-6.3-5.8-9c-0.1-0.1-0.2-0.1-0.2-0.2
			C98.2,22.8,97.8,22.5,97.4,22.3L97.4,22.3z M97.4,22.2L97.4,22.2c0.4,0.3,0.8,0.6,1.2,0.9c0.1,0,0.1,0.1,0.2,0.1
			C98.3,22.9,97.9,22.5,97.4,22.2L97.4,22.2L97.4,22.2z M68.1,22c-0.5,0.4-0.9,0.6-1.2,0.9c-0.2,0.1-0.3,0.2-0.4,0.3
			C66.9,22.8,67.4,22.5,68.1,22L68.1,22L68.1,22z M68.7,21.6c-0.1,0.1-0.1,0.1-0.2,0.1l0,0C68.6,21.7,68.6,21.6,68.7,21.6L68.7,21.6
			z M69,21.4l-0.2,0.1c-0.9,0.6-1.4,1-2,1.4c0.1,0,0.1-0.1,0.2-0.1c0.5-0.4,1-0.7,1.8-1.3l0,0l0,0L69,21.4L69,21.4L69,21.4z
			 M69.3,21.2c-0.2,0.1-0.3,0.2-0.5,0.3c-0.1,0.1-0.2,0.1-0.3,0.2c-0.1,0.1-0.3,0.2-0.4,0.3c-0.6,0.4-1.1,0.8-1.5,1.2
			c0.2-0.1,0.4-0.3,0.6-0.4C67.8,22.3,68.5,21.7,69.3,21.2L69.3,21.2z M69.3,21.2c-0.1,0.1-0.2,0.1-0.4,0.2L69.3,21.2L69.3,21.2z
			 M69.8,20.9L69.8,20.9L69.8,20.9L69.8,20.9L69.8,20.9z M95.2,20.8c0,0,0.1,0,0.1,0.1c0,0,0.1,0,0.1,0.1
			C95.4,20.9,95.3,20.9,95.2,20.8L95.2,20.8L95.2,20.8z M70.2,20.7c0,0-0.1,0-0.1,0.1l0,0l0,0l0,0c-0.1,0.1-0.2,0.1-0.3,0.2
			C70,20.9,70.1,20.8,70.2,20.7L70.2,20.7z M70.5,20.6c-0.1,0-0.2,0.1-0.2,0.1l0,0C70.3,20.7,70.4,20.6,70.5,20.6L70.5,20.6
			L70.5,20.6z M70.9,20.4c-0.1,0.1-0.2,0.1-0.3,0.2c0,0,0.1,0,0.1-0.1S70.8,20.4,70.9,20.4L70.9,20.4z M71.6,20
			c-0.2,0.1-0.3,0.1-0.5,0.2c0,0,0,0,0.1,0C71.3,20.2,71.5,20.1,71.6,20L71.6,20z M83.8,18.3c-0.4,0-0.9,0-1.3,0
			c0.3,0,0.6,0,0.9,0.1C83.5,18.4,83.7,18.4,83.8,18.3L83.8,18.3z M81.4,18.3c-1.6,0-3.1,0.2-4.6,0.6c-2.3,1.1-4.7,2.9-6.7,5.8
			c0.9-0.4,2.3-1,3.2-1.3c1-0.3,2-0.6,3-0.8c2-2.2,4.5-3.6,6.9-4.2c-0.3,0-0.6-0.1-0.9-0.1c-0.1,0-0.2,0-0.3,0c0.1,0,0.3,0,0.4,0
			C82.1,18.3,81.8,18.3,81.4,18.3L81.4,18.3z M85.3,17.7L85.3,17.7c0.8,0.1,1.3,0.2,1.7,0.2C86.4,17.8,86.1,17.8,85.3,17.7
			L85.3,17.7L85.3,17.7z M82.4,17.6c-0.2,0-0.5,0-0.9,0c-0.8,0-1.8,0.2-2.9,0.6c1.4-0.2,2.9-0.3,4.5-0.3c0.5,0,0.9,0,1.4,0
			C84,17.7,83.3,17.6,82.4,17.6L82.4,17.6z M82.6,17.5c-0.2,0-0.5,0-0.8,0c0.1,0,0.2,0,0.3,0C82.2,17.5,82.3,17.5,82.6,17.5
			c0.1,0,0.3,0,0.4,0c0.2,0,0.3,0,0.4,0C83.1,17.6,82.9,17.5,82.6,17.5L82.6,17.5z"/>
		<path class="st0" d="M88.2,68.7L88.2,68.7c-0.2,0.1-0.4,0.1-0.5,0.1l0,0l0,0C87.9,68.8,88.1,68.8,88.2,68.7L88.2,68.7z M70,66.1
			c0.1,0.1,0.3,0.2,0.5,0.3l0,0c0.1,0,0.1,0.1,0.2,0.1c-0.2-0.1-0.3-0.2-0.5-0.3C70.1,66.1,70.1,66.1,70,66.1L70,66.1z M87.5,65.9
			c-0.7,0.4-1.3,0.7-1.8,0.9c0.5,0.1,0.9,0.1,1.4,0.2c0.6-0.3,1.2-0.6,1.8-0.9C88.4,66,88,66,87.5,65.9L87.5,65.9z M69.1,65.6
			L69.1,65.6c0.3,0.2,0.6,0.4,0.9,0.5C69.6,65.9,69.3,65.7,69.1,65.6L69.1,65.6z M95.7,65.2c-0.3,0.1-0.6,0.2-0.8,0.3
			c-0.4,0.4-0.9,0.7-1.4,1c0.3-0.1,0.5-0.2,0.8-0.3C94.8,66,95.3,65.6,95.7,65.2L95.7,65.2z M68.5,65.2L68.5,65.2L68.5,65.2
			L68.5,65.2z M88.9,65.1c-0.3,0.2-0.5,0.3-0.8,0.5c0.5,0.1,0.9,0.1,1.4,0.1c0.3-0.2,0.6-0.4,0.8-0.6C89.8,65.1,89.4,65.1,88.9,65.1
			L88.9,65.1z M83,65c-0.7,0.3-1.4,0.6-2.1,0.8c0.1,0,0.1,0,0.2,0.1c1.5,0.4,2.7,0.7,3.9,0.9c0,0,0.2,0.1,0.2,0
			c0.6-0.4,0.6-0.4,1-0.7c0.1-0.1,0.2-0.2,0.3-0.3C85.3,65.6,84.1,65.3,83,65L83,65z M67.6,64.5c0.1,0,0.1,0.1,0.2,0.1l0.1,0.1
			C67.8,64.7,67.7,64.6,67.6,64.5C67.6,64.6,67.6,64.6,67.6,64.5L67.6,64.5z M97.9,64.4l-0.4,0.3l0,0C97.7,64.5,97.8,64.5,97.9,64.4
			L97.9,64.4z M97.9,64.4L97.9,64.4L97.9,64.4L97.9,64.4L97.9,64.4z M84.3,64.2c-0.2,0.1-0.3,0.2-0.5,0.2c1.3,0.4,2.1,0.7,2.9,0.8
			c0,0,0.2,0.1,0.2,0c0.3-0.2,0.3-0.3,0.4-0.5h-0.2C86.7,64.8,85.8,64.7,84.3,64.2L84.3,64.2z M97,64c-0.3,0.1-0.6,0.2-0.9,0.3
			c-0.2,0.2-0.4,0.4-0.6,0.6c0.3-0.1,0.6-0.2,0.9-0.3C96.6,64.4,96.8,64.2,97,64L97,64z M99,63.5c-0.2,0.1-0.3,0.2-0.5,0.3
			s-0.3,0.3-0.5,0.5C98.3,64.1,98.7,63.8,99,63.5L99,63.5z M99.4,63.2L99.4,63.2L99.4,63.2L99.4,63.2L99.4,63.2z M65.5,62.9
			C65.6,63,65.6,63,65.5,62.9c0.2,0.2,0.4,0.3,0.5,0.4l-0.1-0.1c0.1,0.1,0.3,0.2,0.5,0.4C66.2,63.5,65.9,63.2,65.5,62.9L65.5,62.9z
			 M65.4,62.8C65.4,62.9,65.5,62.9,65.4,62.8L65.4,62.8C65.5,62.9,65.5,62.9,65.4,62.8C65.5,62.9,65.5,62.9,65.4,62.8L65.4,62.8z
			 M100.9,61.6c-0.4,0.3-0.7,0.6-1.1,0.8c-0.2,0.3-0.4,0.5-0.5,0.6c0.4-0.3,0.7-0.5,1.1-0.9C100.6,62,100.7,61.8,100.9,61.6
			L100.9,61.6z M63.4,60.8L63.4,60.8C63.4,60.8,63.4,60.9,63.4,60.8c0.4,0.4,0.6,0.7,0.9,1l0.1,0.1C64.2,61.6,63.8,61.3,63.4,60.8
			L63.4,60.8L63.4,60.8z M89.2,62.1L89.2,62.1L89.2,62.1L89.2,62.1z M89.5,60.1c-0.6,1.2-2.1,2.3-2.9,2.8c0.7,0,1.9,0.1,2.3,0.1
			c0,0,0.7-1.2,0.8-1.3c0.5-0.8,0.7-1.4,0.7-1.4C90.7,60.2,89.8,60.1,89.5,60.1L89.5,60.1z M99.6,60c-0.4,0.2-0.8,0.3-1.1,0.5
			c-0.2,0.4-0.4,0.9-0.6,1.3c0.4-0.1,0.7-0.3,1-0.4C99.1,60.9,99.4,60.5,99.6,60L99.6,60L99.6,60L99.6,60z M102.8,59.8l-0.2,0.3
			c-0.1,0.2-0.3,0.3-0.4,0.5s-0.3,0.3-0.4,0.4C102.1,60.6,102.4,60.2,102.8,59.8L102.8,59.8z M99.8,59.1c-0.3,0.1-0.7,0.3-1,0.4
			c-0.1,0.3-0.2,0.7-0.4,1l0,0c0.4-0.2,0.8-0.3,1.1-0.5C99.7,59.7,99.8,59.4,99.8,59.1L99.8,59.1z M95.8,58.7
			c-0.5,0.2-1.9,0.8-1.9,0.8c-0.7,1.3-1.4,2.6-2.3,3.4c0,0,1,0,1.5-0.1c0.2-0.1,0,0,0,0C94.9,61.1,95.6,59.2,95.8,58.7L95.8,58.7z
			 M61.6,58.6c0.2,0.3,0.4,0.6,0.7,0.9c0,0,0,0.1,0.1,0.1C62.2,59.4,61.9,59.1,61.6,58.6L61.6,58.6z M61.2,58
			c0.1,0.1,0.2,0.2,0.2,0.4l0,0c0.1,0.1,0.1,0.2,0.2,0.2C61.5,58.4,61.3,58.2,61.2,58L61.2,58z M102.9,57.3c-0.3,0.3-0.6,0.5-1,0.7
			c0,0.2-0.1,0.3-0.1,0.5l-0.1,0.4l0,0c0,0,0,0,0,0.1c-0.1,0.4-0.3,0.8-0.4,1.1c0.4-0.2,0.7-0.5,1-0.8c0.1-0.3,0.2-0.5,0.3-0.7
			l0.1-0.4l0,0l0,0C102.8,57.8,102.8,57.6,102.9,57.3L102.9,57.3z M60.4,56.8c0,0.1,0.1,0.1,0.1,0.2c0.1,0.1,0.2,0.3,0.3,0.4
			C60.7,57.2,60.6,57,60.4,56.8L60.4,56.8z M100.2,56.3c-0.3,0.2-0.6,0.4-0.9,0.5c0,0.4-0.1,0.8-0.2,1.2c0.3-0.2,0.6-0.4,1-0.6
			C100.2,57.1,100.2,56.7,100.2,56.3L100.2,56.3z M60.1,56.3c0.1,0.2,0.2,0.3,0.3,0.5c0-0.1-0.1-0.2-0.1-0.3
			C60.2,56.5,60.2,56.4,60.1,56.3L60.1,56.3z M105.5,54.5c-0.3,0.4-0.6,0.8-0.9,1.1c-0.1,0.3-0.2,0.7-0.3,1l0,0l0,0
			c0,0.1-0.1,0.2-0.1,0.2c-0.1,0.2-0.2,0.5-0.3,0.7c0.3-0.4,0.6-0.7,0.9-1.1c0.1-0.2,0.2-0.4,0.3-0.6l0,0l0,0
			C105.2,55.4,105.3,54.9,105.5,54.5L105.5,54.5z M103.3,53.9c-0.3,0.3-0.6,0.5-0.8,0.7c0,0.4-0.1,0.8-0.1,1.2
			c0.3-0.3,0.6-0.5,0.9-0.8C103.3,54.7,103.3,54.3,103.3,53.9L103.3,53.9z M58.7,53.5c0.1,0.3,0.2,0.5,0.3,0.7v0.1v0.1
			c0-0.1-0.1-0.2-0.1-0.3v0.1C58.9,53.9,58.8,53.7,58.7,53.5L58.7,53.5z M58.3,52.4c0.1,0.3,0.3,0.7,0.4,1.1
			c-0.1-0.1-0.1-0.3-0.2-0.5c0,0,0,0,0,0.1C58.5,52.8,58.4,52.6,58.3,52.4L58.3,52.4L58.3,52.4z M107.5,50.8c0,0.1,0,0.1-0.1,0.2
			C107.4,51,107.4,50.9,107.5,50.8L107.5,50.8z M57.7,50.6c0.2,0.6,0.3,1,0.6,1.8C58,51.5,57.8,51,57.7,50.6L57.7,50.6z M106.4,50.3
			c-0.4,0.6-0.7,1.1-1.1,1.6c0,0.4-0.1,0.9-0.1,1.3c0.4-0.5,0.7-0.9,1.1-1.4C106.3,51.2,106.3,50.8,106.4,50.3L106.4,50.3z
			 M107.8,49.6L107.8,49.6C107.8,49.6,107.8,49.7,107.8,49.6C107.8,49.7,107.8,49.6,107.8,49.6L107.8,49.6z M57.2,48.7
			c0.2,0.9,0.3,1.3,0.5,1.9C57.6,50.1,57.5,49.6,57.2,48.7L57.2,48.7z M96.1,48.5c-0.6,0.1-1.1,0.1-1.7,0.1c-0.5,0-1,0-1.5-0.1
			c0.4,0.7,0.8,1.5,1.1,2.3c0.9-0.1,1.8-0.3,2.6-0.5C96.4,49.6,96.3,49.1,96.1,48.5L96.1,48.5z M108.1,48.2
			c-0.1,0.4-0.2,0.9-0.3,1.4c0.1-0.3,0.2-0.6,0.3-1.2C108.1,48.3,108.1,48.3,108.1,48.2L108.1,48.2z M98,48.1
			c-0.2,0.1-0.4,0.1-0.7,0.2c0.3,0.5,0.5,0.9,0.7,1.4c0.2-0.1,0.4-0.2,0.6-0.3C98.4,49,98.2,48.5,98,48.1L98,48.1z M89,47.9
			c0.4,1,0.7,1.9,0.9,2.9c0.7,0.1,1.4,0.1,2,0.1c0-0.4-0.1-0.8-0.2-1.1c-0.1-0.5-0.2-1-0.3-1.4C90.6,48.2,89.8,48.1,89,47.9L89,47.9
			z M56.9,46.8c0,0.2,0.1,0.4,0.1,0.7l0.2,1.2l0,0l0,0L57,47.8c0,0.1,0,0.2,0.1,0.3C57,47.6,57,47.1,56.9,46.8L56.9,46.8z M56.8,46
			c0,0.2,0,0.4,0.1,0.6c0,0.1,0,0.1,0,0.2c0-0.2,0-0.4-0.1-0.6C56.9,46.1,56.8,46.1,56.8,46L56.8,46z M102.4,45.4
			c-0.2,0.2-0.3,0.4-0.5,0.6c0.1,0.3,0.1,0.7,0.2,1c0.2-0.2,0.4-0.4,0.6-0.6C102.5,46,102.5,45.7,102.4,45.4L102.4,45.4z
			 M108.4,45.2c0,0.1,0,0.2,0,0.3c0,0.5,0,1-0.1,1.5c0-0.1,0-0.2,0.1-0.3C108.4,46.1,108.4,45.7,108.4,45.2L108.4,45.2z M56.9,44.6
			c0,0.7,0,1.3,0.1,1.9c0.1,0.4,0.1,0.8,0.2,1.1c0-0.1,0-0.2-0.1-0.2v-0.1c0.1,0.6,0.2,1.2,0.3,1.8c0.5,2,1.7,5.4,4,9
			c-0.9-1.3-1.2-1.8-1.8-2.8c0.1,0.1,0.1,0.2,0.2,0.4l0,0c0.2,0.4,0.4,0.7,0.6,1c0.4,0.6,0.9,1.4,1.3,2c1.9,2.3,3.1,3.8,5.1,5.4
			c-0.1-0.1-0.2-0.2-0.4-0.3c0.4,0.3,0.6,0.5,1.1,0.8l0.1,0.1c-0.1-0.1-0.2-0.1-0.3-0.2c0.1,0.1,0.2,0.2,0.3,0.2l0,0
			c-0.1-0.1-0.2-0.1-0.3-0.2c0.2,0.2,0.4,0.3,0.7,0.5c0,0,0,0,0.1,0c0.2,0.2,0.4,0.3,0.6,0.4c0.1,0.1,0.2,0.1,0.3,0.2
			c-2.3-1.5-3.6-2.7-5.5-4.8c0.2,0.2,0.4,0.4,0.6,0.6c4.4,4.1,9.2,6.3,13.7,7.3c0.3,0,0.5,0,0.8,0.1c-3.6-0.7-6.9-2.1-9.7-3.9
			c-1.5-0.8-2.9-1.9-4.1-3.1c-0.9-0.8-1.7-1.6-2.4-2.4c-0.7-0.9-1.8-2.4-2.8-4.6c-0.5-1-0.9-1.9-1.2-2.6c0-0.1,0-0.3-0.1-0.4
			c-0.1-0.2-0.1-0.3-0.2-0.5c0,0.1,0.1,0.1,0.1,0.2c0-0.4-0.1-0.8-0.1-1.1c-0.2-0.4-0.4-0.7-0.5-1c0,0.2,0,0.4,0.1,0.6
			c-0.1-0.3-0.1-0.6-0.2-0.9c0-0.1-0.1-0.1-0.1-0.2C57.2,47.5,57,46.2,56.9,44.6L56.9,44.6z M56.7,44.5c0,0.1,0,0.2,0,0.3
			c0,0.2,0,0.3,0,0.5s0,0.4,0.1,0.7C56.8,45.6,56.8,45.1,56.7,44.5L56.7,44.5z M108.5,44.5c0,0.1,0,0.2,0,0.3s0,0.3,0,0.4v0.6
			c0-0.2,0-0.4,0-0.6C108.5,44.9,108.5,44.7,108.5,44.5L108.5,44.5z M56.7,44.4V45c0-0.1,0-0.1,0-0.2C56.7,44.7,56.7,44.6,56.7,44.4
			L56.7,44.4z M58.8,43.8c-0.3,0.5-0.5,1.1-0.7,1.7c0.2,0.5,0.4,1,0.6,1.5c0.2-0.6,0.4-1.1,0.7-1.6C59.2,44.8,59,44.3,58.8,43.8
			L58.8,43.8z M56.9,42c0,0.3-0.1,0.7-0.1,1c0,0.7,0,1.3,0.1,1.9c0-0.4,0-0.7,0-1C56.8,43.4,56.8,42.7,56.9,42L56.9,42z M56.7,41.9
			c0,0.5,0,0.9,0,1.4c0,0.3,0,0.7,0,1.1l0,0l0,0C56.7,43.3,56.7,42.6,56.7,41.9L56.7,41.9z M61.6,40.5c-0.1,0.1-0.2,0.2-0.4,0.3
			c0.1,0.6,0.2,1.2,0.4,1.8c0.1-0.1,0.2-0.2,0.3-0.3C61.9,41.7,61.7,41.1,61.6,40.5L61.6,40.5z M57,39.6c-0.1,1.1-0.2,1.7-0.2,2.4
			C56.8,41.4,56.9,40.7,57,39.6L57,39.6z M57.8,38.7c-0.1,0.3-0.2,0.6-0.3,0.9c-0.1,0.3-0.2,0.6-0.3,1c0,0.5,0.1,1,0.2,1.5
			c0.1-0.7,0.3-1.5,0.6-2.2C57.8,39.5,57.8,39.1,57.8,38.7L57.8,38.7z M57.5,37L57.5,37c-0.1,0.3-0.1,0.5-0.2,0.7
			c-0.1,0.3-0.1,0.6-0.2,1C57,39,57,39.3,56.9,39.6c0-0.2,0.1-0.5,0.1-0.7c0,0.1,0,0.2,0,0.2C57.3,38.2,57.4,37.6,57.5,37L57.5,37z
			 M70.9,36.1c-1.7,0.4-3.2,0.9-4.6,1.6c0,0.1,0,0.2,0,0.2c0,0.6,0,1.3,0,1.9c1.7-0.6,3.7-1.1,5.7-1.2c-0.4-0.4-0.8-0.7-1.2-1.1
			C70.9,37,70.9,36.6,70.9,36.1L70.9,36.1z M104.1,34.5c0.4,2.2,0.5,3.6,0.5,4.6c0.1,0.2,0.2,0.3,0.3,0.5c-0.1-0.2-0.2-0.3-0.3-0.5
			c-0.1,0.9-0.2,1.8-0.4,2.5c0.1,0.5,0.2,1,0.4,1.5c0.4-1,0.7-2,0.7-2.9l0,0l0,0c0,0,0.1-0.6,0.1-1.5c-0.1-0.5-0.2-0.9-0.4-1.4
			c0.1,0.1,0.3,0.3,0.4,0.4c0-0.4,0-0.9-0.1-1.5c-0.3-0.3-0.6-0.7-1-1C104.3,35.1,104.2,34.8,104.1,34.5L104.1,34.5z M58.5,34
			c-0.1,0.1-0.1,0.3-0.2,0.4l0,0c-0.4,1.2-0.6,1.9-0.8,2.5c0,0,0,0,0,0.1c0.1-0.4,0.3-0.8,0.4-1.1c0.1-0.3,0.1-0.6,0.2-0.9
			C58.3,34.7,58.4,34.3,58.5,34L58.5,34z M61.5,33.4c-0.1,0.1-0.2,0.2-0.3,0.3c-0.1,0.5-0.1,0.9-0.1,1.4c0.1-0.1,0.2-0.2,0.3-0.3
			C61.4,34.3,61.4,33.9,61.5,33.4L61.5,33.4z M59.9,31.1L59.9,31.1L59.9,31.1L59.9,31.1L59.9,31.1z M60,30.9
			C59.9,30.9,59.9,30.9,60,30.9c0,0.1-0.1,0.1-0.1,0.2C59.9,31,59.9,31,60,30.9L60,30.9z M62.3,30c-0.2,0.1-0.3,0.1-0.5,0.2
			c-0.2,0.7-0.3,1.4-0.5,2.2c0.1-0.1,0.2-0.2,0.2-0.2s0.1,0,0.2-0.1C61.9,31.4,62.1,30.7,62.3,30L62.3,30z M102.8,29.7
			c0.1,0.2,0.2,0.5,0.2,0.7c0.7,0.9,1.3,1.8,1.9,2.8c-0.1-0.3-0.1-0.6-0.2-0.9C104.1,31.5,103.5,30.6,102.8,29.7L102.8,29.7z
			 M61.4,28.6c-0.6,0.8-1,1.5-1.5,2.3C60.4,30.2,60.9,29.4,61.4,28.6L61.4,28.6z M64.5,28.4c-0.4,0.4-0.9,0.8-1.3,1.2
			c-0.2,0.1-0.4,0.1-0.5,0.2c0.1,0.5,0.3,1.1,0.6,1.8c0.2,0,0.4-0.1,0.6-0.1c-0.1,0.1-0.3,0.2-0.5,0.3c0.1,0.3,0.3,0.6,0.5,0.9
			c0.6-0.4,1.3-0.9,2.1-1.3c-0.5-0.8-0.8-1.5-1.1-2.2c-0.3,0-0.5,0.1-0.8,0.2l0,0c0.2-0.2,0.5-0.4,0.7-0.6
			C64.6,28.7,64.6,28.5,64.5,28.4L64.5,28.4z M61.8,28L61.8,28c-0.1,0.2-0.3,0.4-0.4,0.6C61.5,28.4,61.7,28.2,61.8,28L61.8,28
			L61.8,28L61.8,28z M61.8,28L61.8,28L61.8,28L61.8,28z M73.1,27.6c-1.9,0.4-3.1,0.8-4.8,1.5c-0.1,0-0.2,0-0.3,0
			c-0.3,0.7-0.5,1.4-0.7,2.1c0.9,0,2.4,0.2,4.3,0.7c0.2-0.8,0.4-1.5,0.6-2.2c-0.5-0.1-1-0.2-1.4-0.3c0.7-0.2,1.2-0.4,1.7-0.5
			C72.7,28.5,72.9,28,73.1,27.6L73.1,27.6z M63.2,26.3c-0.2,0.3-0.4,0.5-0.7,0.8c-0.2,0.3-0.5,0.6-0.7,0.8c0.1-0.1,0.2-0.3,0.3-0.4
			c0.3-0.4,0.7-0.8,0.9-1.1C63.1,26.4,63.2,26.3,63.2,26.3L63.2,26.3z M64.7,24.8c-0.1,0.1-0.1,0.1-0.2,0.2l0,0
			c-0.4,0.4-0.8,0.9-1.3,1.4c0,0.1-0.1,0.1-0.1,0.2c-0.1,0.1-0.2,0.3-0.3,0.6c0.8-0.9,1.4-1.4,1.4-1.4l0,0
			C64.4,25.2,64.6,24.9,64.7,24.8L64.7,24.8z M64.8,24.7L64.8,24.7L64.8,24.7L64.8,24.7z M65,24.4c-0.1,0.1-0.1,0.1-0.2,0.2
			c0,0,0,0,0.1,0C65,24.5,65,24.5,65,24.4L65,24.4z M66.5,23.2c-0.4,0.3-0.8,0.7-1.4,1.2c0.2-0.2,0.4-0.3,0.5-0.5
			C65.9,23.7,66.2,23.4,66.5,23.2L66.5,23.2L66.5,23.2z M98.6,23.1c0.1,0.1,0.2,0.1,0.2,0.2l0,0C98.7,23.2,98.7,23.1,98.6,23.1
			L98.6,23.1z M66.9,22.8c-0.1,0-0.1,0.1-0.2,0.1c-0.1,0.1-0.2,0.2-0.3,0.2l0,0C66.6,23.1,66.8,23,66.9,22.8L66.9,22.8z M67.2,22.8
			c-0.2,0.1-0.4,0.3-0.6,0.4c-1,0.9-1.7,1.8-2.2,2.4c0.1,0,0.1,0,0.2-0.1C65.4,24.5,66.2,23.6,67.2,22.8L67.2,22.8z M76.4,22.7
			c-1,0.2-2,0.4-3,0.8c-0.9,0.3-2.4,0.9-3.2,1.3c-0.3,0.4-0.6,0.9-0.8,1.3c0.7,0.2,1.9,0.6,3.7,1.5c0.1-0.3,0.2-0.5,0.4-0.7
			c-0.8-0.4-1.9-1-3.1-1.5c-0.1,0-0.2-0.1-0.2-0.1c1.2-0.6,3.2-1.6,5.9-2.1C76.1,23,76.2,22.8,76.4,22.7L76.4,22.7z M68.7,21.6
			c-0.8,0.5-1.3,0.9-1.8,1.3c0.3-0.2,0.7-0.5,1.2-0.9c0.1-0.1,0.2-0.2,0.4-0.3C68.6,21.7,68.6,21.6,68.7,21.6L68.7,21.6L68.7,21.6z
			 M96.3,21.5c0.4,0.3,0.8,0.5,1.1,0.8c0.4,0.3,0.8,0.5,1.2,0.8c-0.4-0.3-0.8-0.6-1.2-0.9l0,0C97.1,22,96.7,21.7,96.3,21.5
			L96.3,21.5z M69,21.4l-0.2,0.1C68.8,21.6,68.8,21.5,69,21.4C68.9,21.5,68.9,21.5,69,21.4L69,21.4z M69.8,20.9L69.8,20.9
			c-0.3,0.2-0.6,0.3-0.9,0.6c0,0,0,0-0.1,0c0.2-0.1,0.3-0.2,0.5-0.3C69.5,21.1,69.6,21,69.8,20.9L69.8,20.9z M95.3,20.9
			c0.3,0.2,0.6,0.4,1,0.6c-0.3-0.2-0.5-0.3-0.8-0.5C95.4,20.9,95.4,20.9,95.3,20.9L95.3,20.9z M70.1,20.8L70.1,20.8L70.1,20.8
			L70.1,20.8L70.1,20.8z M72.5,19.6c-0.7,0.3-1.2,0.5-1.7,0.8c-0.1,0-0.1,0.1-0.2,0.1s-0.1,0.1-0.1,0.1c-0.1,0-0.2,0.1-0.3,0.1
			c0.1,0,0.2-0.1,0.2-0.1s0,0-0.1,0c0.2-0.1,0.5-0.2,0.8-0.4c0,0,0,0-0.1,0c0.2-0.1,0.3-0.1,0.5-0.2C71.9,19.9,72.2,19.7,72.5,19.6
			L72.5,19.6z M73.1,19.3L73.1,19.3c-0.2,0.1-0.4,0.2-0.6,0.3C72.7,19.5,72.9,19.4,73.1,19.3L73.1,19.3z M75.2,18.6
			c-0.6,0.2-1.2,0.4-2.1,0.7C74.1,19,74.7,18.8,75.2,18.6L75.2,18.6z M82.5,18.4c-0.1,0-0.3,0-0.4,0C82.2,18.4,82.3,18.4,82.5,18.4
			s0.5,0.1,0.8,0.1c0.1,0,0.1,0,0.2,0C83.1,18.4,82.8,18.4,82.5,18.4L82.5,18.4z M77.5,18.1c-1,0.2-1.5,0.3-2.2,0.6
			C75.8,18.5,76.4,18.3,77.5,18.1L77.5,18.1z M79.5,17.7c-0.7,0.1-1.1,0.2-2,0.3C78.4,17.9,79,17.8,79.5,17.7L79.5,17.7z M81.5,17.6
			c-0.9,0-1.4,0.1-2,0.2C80,17.7,80.6,17.6,81.5,17.6L81.5,17.6z M81.7,17.6h-0.2C81.6,17.6,81.6,17.6,81.7,17.6L81.7,17.6
			L81.7,17.6z M83,17.6c-0.2,0-0.3,0-0.5,0c0.9,0,1.6,0.1,2.2,0.3c-0.5,0-0.9,0-1.4,0c-1.6,0-3.2,0.1-4.5,0.3
			c-0.6,0.2-1.2,0.4-1.9,0.8c1.5-0.3,3-0.6,4.6-0.6c0.3,0,0.7,0,1,0c0.5,0,0.8,0,1.2,0c0.6-0.1,1.7-0.3,2.8-0.3
			c0.8,0,1.5,0.1,2.3,0.2l0,0l0,0C88,18.1,87.5,18,87.1,18c-0.4-0.1-0.9-0.1-1.7-0.2l0,0c-0.9-0.1-1.4-0.1-1.9-0.1
			C83.3,17.6,83.1,17.6,83,17.6L83,17.6z M82.1,17.6c-0.1,0-0.2,0-0.3,0h-0.1h-0.1c0.3,0,0.6,0,0.9,0C82.3,17.6,82.2,17.6,82.1,17.6
			L82.1,17.6z"/>
	</g>
	<g>
		<g>
			<g>
				<path id="SVGID_1_" class="st1" d="M255.4,127.1h-37.3l21.9-26c2.6-3.1,3.9-5.7,3.9-7.9c0-1.7-0.5-3.1-1.6-4.2s-2.5-1.6-4.2-1.6
					c-4.3,0-6.5,2.6-6.5,7.8v0.6h-11.7v-0.3c0-5.6,1.6-10,4.8-13.1s7.7-4.7,13.3-4.7c5.2,0,9.4,1.3,12.6,3.8
					c3.6,2.8,5.3,6.7,5.3,11.7c0,4.4-2.2,9-6.6,13.8l-8.8,9.7h15L255.4,127.1L255.4,127.1z M298,103.5c0,6.9-1.3,12.5-4,16.9
					c-3.2,5.3-8,8-14.5,8s-11.3-2.7-14.6-8.2c-2.6-4.5-4-10.2-4-17.1s1.3-12.6,4-17.1c3.3-5.5,8.1-8.2,14.6-8.2
					c6.6,0,11.5,2.8,14.7,8.4C296.8,90.5,298,96.3,298,103.5z M273.4,103c0,10.3,2.1,15.4,6.2,15.4s6.1-5.1,6.1-15.4
					s-2-15.4-6.1-15.4c-2.7,0-4.6,2-5.5,6.1C273.6,95.8,273.4,98.9,273.4,103z M339.8,127.1h-37.3l21.9-26c2.6-3.1,3.9-5.7,3.9-7.9
					c0-1.7-0.5-3.1-1.6-4.2s-2.5-1.6-4.2-1.6c-4.3,0-6.5,2.6-6.5,7.8v0.6h-11.8v-0.3c0-5.6,1.6-10,4.8-13.1
					c3.2-3.1,7.7-4.7,13.3-4.7c5.2,0,9.4,1.3,12.6,3.8c3.6,2.8,5.3,6.7,5.3,11.7c0,4.4-2.2,9-6.6,13.8l-8.8,9.7h15L339.8,127.1
					L339.8,127.1z M382.5,103.5c0,6.9-1.3,12.5-4,16.9c-3.2,5.3-8,8-14.5,8s-11.3-2.7-14.6-8.2c-2.6-4.5-4-10.2-4-17.1
					s1.3-12.6,4-17.1c3.2-5.5,8.1-8.2,14.6-8.2c6.6,0,11.5,2.8,14.7,8.4C381.2,90.5,382.5,96.3,382.5,103.5z M357.8,103
					c0,10.3,2.1,15.4,6.2,15.4s6.1-5.1,6.1-15.4s-2-15.4-6.1-15.4c-2.7,0-4.6,2-5.5,6.1C358,95.8,357.8,98.9,357.8,103z"/>
			</g>
		</g>
	</g>
</g>
</svg>
